<svg width="22" height="16" viewBox="0 0 22 16" fill="none" xmlns="http://www.w3.org/2000/svg">
<path d="M18 16C18 16 22 12.4463 22 9.75C22 8.75544 21.5786 7.80161 20.8284 7.09835C20.0783 6.39509 19.0609 6 18 6C16.9391 6 15.9217 6.39509 15.1716 7.09835C14.4214 7.80161 14 8.75544 14 9.75C14 12.4463 18 16 18 16ZM18 11.625C17.4696 11.625 16.9609 11.4275 16.5858 11.0758C16.2107 10.7242 16 10.2473 16 9.75C16 9.25272 16.2107 8.77581 16.5858 8.42417C16.9609 8.07254 17.4696 7.875 18 7.875C18.5304 7.875 19.0391 8.07254 19.4142 8.42417C19.7893 8.77581 20 9.25272 20 9.75C20 10.2473 19.7893 10.7242 19.4142 11.0758C19.0391 11.4275 18.5304 11.625 18 11.625Z" fill="#6E84A3"/>
<path d="M4 16C4 16 8 12.4463 8 9.75C8 8.75544 7.57857 7.80161 6.82843 7.09835C6.07828 6.39509 5.06087 6 4 6C2.93913 6 1.92172 6.39509 1.17157 7.09835C0.421427 7.80161 1.58081e-08 8.75544 0 9.75C0 12.4463 4 16 4 16ZM4 11.625C3.46957 11.625 2.96086 11.4275 2.58579 11.0758C2.21071 10.7242 2 10.2473 2 9.75C2 9.25272 2.21071 8.77581 2.58579 8.42417C2.96086 8.07254 3.46957 7.875 4 7.875C4.53043 7.875 5.03914 8.07254 5.41421 8.42417C5.78929 8.77581 6 9.25272 6 9.75C6 10.2473 5.78929 10.7242 5.41421 11.0758C5.03914 11.4275 4.53043 11.625 4 11.625Z" fill="#6E84A3"/>
<g clip-path="url(#clip0_1_7)">
<path d="M11 16C11 16 17 10.314 17 6C17 4.4087 16.3679 2.88258 15.2426 1.75736C14.1174 0.632141 12.5913 0 11 0C9.4087 0 7.88258 0.632141 6.75736 1.75736C5.63214 2.88258 5 4.4087 5 6C5 10.314 11 16 11 16ZM11 9C10.2044 9 9.44129 8.68393 8.87868 8.12132C8.31607 7.55871 8 6.79565 8 6C8 5.20435 8.31607 4.44129 8.87868 3.87868C9.44129 3.31607 10.2044 3 11 3C11.7956 3 12.5587 3.31607 13.1213 3.87868C13.6839 4.44129 14 5.20435 14 6C14 6.79565 13.6839 7.55871 13.1213 8.12132C12.5587 8.68393 11.7956 9 11 9Z" fill="#6E84A3"/>
</g>
<defs>
<clipPath id="clip0_1_7">
<rect width="16" height="16" fill="white" transform="translate(3)"/>
</clipPath>
</defs>
</svg>
